<svg xmlns="http://www.w3.org/2000/svg" width="1200" height="1200" viewBox="0 0 1200 1200" fill="none">
  <rect width="1200" height="1200" fill="#2563eb"/>
  <g transform="translate(300, 300)">
    <!-- Kanban Board Icon -->
    <rect x="50" y="100" width="150" height="500" rx="10" fill="white" opacity="0.9"/>
    <rect x="250" y="100" width="150" height="500" rx="10" fill="white" opacity="0.9"/>
    <rect x="450" y="100" width="150" height="500" rx="10" fill="white" opacity="0.9"/>
    
    <!-- Task Cards -->
    <rect x="70" y="130" width="110" height="60" rx="5" fill="#3b82f6"/>
    <rect x="70" y="210" width="110" height="60" rx="5" fill="#3b82f6"/>
    <rect x="70" y="290" width="110" height="60" rx="5" fill="#3b82f6"/>
    
    <rect x="270" y="130" width="110" height="60" rx="5" fill="#8b5cf6"/>
    <rect x="270" y="210" width="110" height="60" rx="5" fill="#8b5cf6"/>
    
    <rect x="470" y="130" width="110" height="60" rx="5" fill="#10b981"/>
    <rect x="470" y="210" width="110" height="60" rx="5" fill="#10b981"/>
    <rect x="470" y="290" width="110" height="60" rx="5" fill="#10b981"/>
    <rect x="470" y="370" width="110" height="60" rx="5" fill="#10b981"/>
    
    <!-- AI Sparkle Icon -->
    <circle cx="125" cy="50" r="35" fill="#fbbf24"/>
    <path d="M 125 25 L 130 40 L 145 45 L 130 50 L 125 65 L 120 50 L 105 45 L 120 40 Z" fill="white"/>
  </g>
</svg>